<?xml version="1.0" standalone="no"?><!DOCTYPE svg PUBLIC "-//W3C//DTD SVG 1.1//EN" "http://www.w3.org/Graphics/SVG/1.1/DTD/svg11.dtd"><svg height="183" node-id="1" sillyvg="true" template-height="183" template-width="183" version="1.1" viewBox="0 0 183 183" width="183" xmlns="http://www.w3.org/2000/svg" xmlns:xlink="http://www.w3.org/1999/xlink"><defs node-id="66"><linearGradient gradientUnits="userSpaceOnUse" id="SVGID_1_" node-id="6" spreadMethod="pad" x1="35.8201" x2="178.1219" y1="107.372" y2="107.372"><stop offset="0" stop-color="#ffd900"></stop><stop offset="1" stop-color="#fffbda"></stop></linearGradient><linearGradient gradientUnits="userSpaceOnUse" id="SVGID_2_" node-id="16" spreadMethod="pad" x1="68.1393" x2="171.8517" y1="142.5925" y2="142.5925"><stop offset="0.2915" stop-color="#fdeff1"></stop><stop offset="0.9302" stop-color="#f19281" stop-opacity="0.1"></stop></linearGradient><linearGradient gradientTransform="matrix(-0.4578 -0.889 0.889 -0.4578 -4271.2778 -2090.2603)" gradientUnits="userSpaceOnUse" id="SVGID_3_" node-id="21" spreadMethod="pad" x1="-3887.277" x2="-3834.5977" y1="2851.1042" y2="2851.1042"><stop offset="0.3836" stop-color="#58bcb8"></stop><stop offset="1" stop-color="#f6e739"></stop></linearGradient><linearGradient gradientTransform="matrix(-0.4578 -0.889 0.889 -0.4578 -4271.2778 -2090.2603)" gradientUnits="userSpaceOnUse" id="SVGID_4_" node-id="25" spreadMethod="pad" x1="-3883.776" x2="-3864.7153" y1="2872.2722" y2="2872.2722"><stop offset="0" stop-color="#f1ef87"></stop><stop offset="0.3793" stop-color="#efaf72"></stop><stop offset="0.7455" stop-color="#ec6d5c"></stop><stop offset="0.9987" stop-color="#e6407e"></stop></linearGradient><linearGradient gradientTransform="matrix(-0.4578 -0.889 0.889 -0.4578 -4271.2778 -2090.2603)" gradientUnits="userSpaceOnUse" id="SVGID_5_" node-id="31" spreadMethod="pad" x1="-3882.5212" x2="-3852.2727" y1="2894.776" y2="2894.776"><stop offset="0.3836" stop-color="#1dbcff"></stop><stop offset="1" stop-color="#f6a7ff"></stop></linearGradient><linearGradient gradientTransform="matrix(-0.4578 -0.889 0.889 -0.4578 -4271.2778 -2090.2603)" gradientUnits="userSpaceOnUse" id="SVGID_6_" node-id="35" spreadMethod="pad" x1="-3899.174" x2="-3880.4805" y1="2846.2039" y2="2846.2039"><stop offset="0.3836" stop-color="#1dbcff"></stop><stop offset="1" stop-color="#f6a7ff"></stop></linearGradient><linearGradient gradientTransform="matrix(-0.4578 -0.889 0.889 -0.4578 -4271.2778 -2090.2603)" gradientUnits="userSpaceOnUse" id="SVGID_7_" node-id="39" spreadMethod="pad" x1="-3904.578" x2="-3897.6606" y1="2833.7449" y2="2833.7449"><stop offset="0" stop-color="#f1ef87"></stop><stop offset="0.3793" stop-color="#efaf72"></stop><stop offset="0.7455" stop-color="#ec6d5c"></stop><stop offset="0.9987" stop-color="#e6407e"></stop></linearGradient><linearGradient gradientTransform="matrix(-0.4578 -0.889 0.889 -0.4578 -4271.2778 -2090.2603)" gradientUnits="userSpaceOnUse" id="SVGID_8_" node-id="45" spreadMethod="pad" x1="-3866.604" x2="-3855.2708" y1="2876.1907" y2="2876.1907"><stop offset="0.3836" stop-color="#58bcb8"></stop><stop offset="1" stop-color="#f6e739"></stop></linearGradient><linearGradient gradientTransform="matrix(-0.4578 -0.889 0.889 -0.4578 -4271.2778 -2090.2603)" gradientUnits="userSpaceOnUse" id="SVGID_9_" node-id="49" spreadMethod="pad" x1="-3863.4436" x2="-3853.29" y1="2908.059" y2="2908.059"><stop offset="0" stop-color="#f1ef87"></stop><stop offset="0.3793" stop-color="#efaf72"></stop><stop offset="0.7455" stop-color="#ec6d5c"></stop><stop offset="0.9987" stop-color="#e6407e"></stop></linearGradient><linearGradient gradientTransform="matrix(-0.4578 -0.889 0.889 -0.4578 -4271.2778 -2090.2603)" gradientUnits="userSpaceOnUse" id="SVGID_10_" node-id="55" spreadMethod="pad" x1="-3889.2498" x2="-3877.8806" y1="2859.639" y2="2859.639"><stop offset="0" stop-color="#f1ef87"></stop><stop offset="0.3793" stop-color="#efaf72"></stop><stop offset="0.7455" stop-color="#ec6d5c"></stop><stop offset="0.9987" stop-color="#e6407e"></stop></linearGradient><linearGradient gradientTransform="matrix(-0.4578 -0.889 0.889 -0.4578 -4271.2778 -2090.2603)" gradientUnits="userSpaceOnUse" id="SVGID_11_" node-id="61" spreadMethod="pad" x1="-3898.384" x2="-3889.7244" y1="2880.2961" y2="2880.2961"><stop offset="0.3836" stop-color="#58bcb8"></stop><stop offset="1" stop-color="#f6e739"></stop></linearGradient></defs><g node-id="202"><g node-id="204"><path d="M 178.11 107.37 C 178.11 146.66 146.26 178.51 106.97 178.51 C 67.68 178.51 35.83 146.66 35.83 107.37 C 35.83 68.08 67.68 36.23 106.97 36.23 C 146.26 36.23 178.11 68.08 178.11 107.37 Z" fill="url(#SVGID_1_)" fill-rule="nonzero" group-id="1,3" node-id="155" stroke="#c76852" stroke-linecap="butt" stroke-width="1" target-height="142.28" target-width="142.28" target-x="35.83" target-y="36.23"></path><g node-id="205"><path d="M 104.17 86.19 L 104.32 90.16 L 104.25 93.54 L 103.96 96.68 L 103.53 98.83 L 103.06 100.10 L 102.60 100.70 L 102.16 100.91 L 101.69 100.77 L 101.15 100.23 L 100.51 99.03 L 99.80 96.96 L 99.09 93.89 L 98.56 90.55 L 98.18 86.60 L 98.03 82.63 L 98.09 79.24 L 98.39 76.11 L 98.82 73.96 L 99.29 72.69 L 99.75 72.08 L 100.19 71.88 L 100.66 72.02 L 101.20 72.56 L 101.84 73.76 L 102.55 75.83 L 103.26 78.89 L 103.79 82.24 L 104.17 86.19 Z" fill="#231815" fill-rule="nonzero" group-id="1,3,4" node-id="159" stroke="none" target-height="29.030006" target-width="6.290001" target-x="98.03" target-y="71.88"></path></g><g node-id="206"><path d="M 115.58 84.27 L 115.47 84.75 L 114.97 85.32 L 113.83 86.06 L 111.82 86.93 L 108.83 87.88 L 105.53 88.67 L 101.62 89.36 L 97.68 89.83 L 94.30 90.03 L 91.15 89.99 L 88.97 89.73 L 87.67 89.35 L 87.03 88.95 L 86.79 88.52 L 86.89 88.04 L 87.39 87.46 L 88.53 86.73 L 90.54 85.85 L 93.54 84.90 L 96.83 84.12 L 100.74 83.43 L 104.69 82.96 L 108.07 82.76 L 111.21 82.80 L 113.39 83.06 L 114.70 83.43 L 115.34 83.84 L 115.58 84.27 Z" fill="#231815" fill-rule="nonzero" group-id="1,3,5" node-id="164" stroke="none" target-height="7.2699966" target-width="28.79" target-x="86.79" target-y="82.76"></path></g><g node-id="207"><path d="M 81.73 56.35 L 82.67 57.15 L 83.37 58.28 L 83.81 59.83 L 83.92 62.39 L 83.40 65.61 L 82.32 68.90 L 80.59 72.46 L 78.40 75.76 L 76.11 78.36 L 73.60 80.44 L 71.34 81.64 L 69.78 82.05 L 68.45 82.02 L 67.28 81.61 L 66.33 80.81 L 65.64 79.68 L 65.19 78.13 L 65.08 75.57 L 65.60 72.35 L 66.68 69.06 L 68.42 65.50 L 70.61 62.20 L 72.89 59.60 L 75.40 57.52 L 77.67 56.32 L 79.23 55.91 L 80.56 55.94 L 81.73 56.35 Z" fill="#231815" fill-rule="nonzero" group-id="1,3,6" node-id="169" stroke="none" target-height="26.140003" target-width="18.839996" target-x="65.08" target-y="55.91"></path></g><path d="M 85.75 111.18 C 85.75 111.18 66.94 119.24 61.69 96.09" fill="none" group-id="1,3" node-id="172" stroke="#231815" stroke-linecap="butt" stroke-width="2" target-height="23.150002" target-width="24.060001" target-x="61.69" target-y="96.09"></path></g><path d="M 122.88 111.61 C 122.88 118.16 117.57 123.47 111.02 123.47 C 104.47 123.47 99.16 118.16 99.16 111.61 C 99.16 105.06 104.47 99.75 111.02 99.75 C 117.57 99.75 122.88 105.06 122.88 111.61 Z" fill="#f2b48a" fill-rule="nonzero" group-id="1" node-id="175" stroke="none" target-height="23.720001" target-width="23.719994" target-x="99.16" target-y="99.75"></path><path d="M 64.41 81.01 C 64.41 86.62 59.86 91.17 54.25 91.17 C 48.64 91.17 44.09 86.62 44.09 81.01 C 44.09 75.40 48.64 70.85 54.25 70.85 C 59.86 70.85 64.41 75.40 64.41 81.01 Z" fill="#f2b48a" fill-rule="nonzero" group-id="1" node-id="177" stroke="none" target-height="20.32" target-width="20.320004" target-x="44.09" target-y="70.85"></path><path d="M 171.85 113.50 C 171.85 113.50 155.81 202.85 68.14 160.11 C 68.14 160.10 126.14 175.08 171.85 113.50 Z" fill="url(#SVGID_2_)" fill-rule="nonzero" group-id="1" node-id="179" stroke="none" target-height="89.350006" target-width="103.71001" target-x="68.14" target-y="113.5"></path></g><g node-id="203"><path d="M 58.65 48.09 L 55.34 54.17 L 3.50 25.99 L 6.80 19.91 Z" fill="url(#SVGID_3_)" fill-rule="nonzero" group-id="2" node-id="184" stroke="#fff0e9" stroke-linecap="butt" stroke-width="1" target-height="34.26" target-width="55.15" target-x="3.5" target-y="19.91"></path><path d="M 70.64 35.35 L 70.82 42.26 L 41.33 43.02 L 41.15 36.10 Z" fill="url(#SVGID_4_)" fill-rule="nonzero" group-id="2" node-id="186" stroke="#fff7e6" stroke-linecap="butt" stroke-width="1" target-height="7.670002" target-width="29.669998" target-x="41.15" target-y="35.35"></path><path d="M 60.14 14.56 L 65.12 9.76 L 85.58 31.02 L 80.59 35.82 Z" fill="url(#SVGID_5_)" fill-rule="nonzero" group-id="2" node-id="188" stroke="#fff0e9" stroke-linecap="butt" stroke-width="1" target-height="26.06" target-width="25.440002" target-x="60.14" target-y="9.76"></path><path d="M 22.67 70.66 L 21.79 63.80 L 57.22 59.27 L 58.10 66.13 Z" fill="url(#SVGID_6_)" fill-rule="nonzero" group-id="2" node-id="190" stroke="#fff0e9" stroke-linecap="butt" stroke-width="1" target-height="11.390003" target-width="36.309998" target-x="21.79" target-y="59.27"></path><path d="M 25.69 88.90 L 22.52 82.75 L 42.39 72.52 L 45.55 78.67 Z" fill="url(#SVGID_7_)" fill-rule="nonzero" group-id="2" node-id="192" stroke="#fff7e6" stroke-linecap="butt" stroke-width="1" target-height="16.380005" target-width="23.029999" target-x="22.52" target-y="72.52"></path><path d="M 51.19 20.31 L 57.88 22.08 L 55.56 30.80 L 48.88 29.03 Z" fill="url(#SVGID_8_)" fill-rule="nonzero" group-id="2" node-id="194" stroke="#fff0e9" stroke-linecap="butt" stroke-width="1" target-height="10.49" target-width="9" target-x="48.88" target-y="20.31"></path><path d="M 84.95 5.11 L 85.13 12.02 L 76.11 12.25 L 75.93 5.34 Z" fill="url(#SVGID_9_)" fill-rule="nonzero" group-id="2" node-id="196" stroke="#fff7e6" stroke-linecap="butt" stroke-width="1" target-height="7.14" target-width="9.199997" target-x="75.93" target-y="5.11"></path><path d="M 46.34 48.23 L 53.17 49.36 L 51.70 58.26 L 44.87 57.14 Z" fill="url(#SVGID_10_)" fill-rule="nonzero" group-id="2" node-id="198" stroke="#fff7e6" stroke-linecap="butt" stroke-width="1" target-height="10.029999" target-width="8.299999" target-x="44.87" target-y="48.23"></path><path d="M 75.64 48.60 L 77.45 55.28 L 68.73 57.63 L 66.93 50.96 Z" fill="url(#SVGID_11_)" fill-rule="nonzero" group-id="2" node-id="200" stroke="#fff0e9" stroke-linecap="butt" stroke-width="1" target-height="9.030003" target-width="10.519997" target-x="66.93" target-y="48.6"></path></g></svg>